<svg xmlns="http://www.w3.org/2000/svg" viewBox="0 0 960 540" width="960" height="540">
  <defs>
    <linearGradient id="bg" x1="0" y1="0" x2="1" y2="1">
      <stop offset="0%" stop-color="#1c3f6e"/>
      <stop offset="55%" stop-color="#173659"/>
      <stop offset="100%" stop-color="#122c4a"/>
    </linearGradient>
    <radialGradient id="glow2" cx="50%" cy="46%" r="50%">
      <stop offset="0%" stop-color="#4a86d0" stop-opacity="0.35"/>
      <stop offset="100%" stop-color="#4a86d0" stop-opacity="0"/>
    </radialGradient>
    <radialGradient id="sphere2" cx="36%" cy="30%" r="75%">
      <stop offset="0%" stop-color="#7fb2ee"/>
      <stop offset="55%" stop-color="#3577c4"/>
      <stop offset="100%" stop-color="#1c3f6e"/>
    </radialGradient>
    <linearGradient id="nodeFill2" x1="0" y1="0" x2="1" y2="1">
      <stop offset="0%" stop-color="#1c3a63"/>
      <stop offset="100%" stop-color="#132a4c"/>
    </linearGradient>
    <linearGradient id="nodeRing2" x1="0" y1="0" x2="1" y2="1">
      <stop offset="0%" stop-color="#8fbcf0"/>
      <stop offset="100%" stop-color="#4a86d0"/>
    </linearGradient>
    <filter id="soft2" x="-60%" y="-60%" width="220%" height="220%">
      <feDropShadow dx="0" dy="8" stdDeviation="10" flood-color="#020a17" flood-opacity="0.45"/>
    </filter>
  </defs>
  <rect width="960" height="540" fill="url(#bg)"/>
  <circle cx="480" cy="270" r="260" fill="url(#glow2)"/>

  <circle cx="140" cy="90" r="2.5" fill="#8fbcf0" opacity="0.6"/>
  <circle cx="820" cy="100" r="3" fill="#8fbcf0" opacity="0.5"/>
  <circle cx="850" cy="440" r="2.5" fill="#8fbcf0" opacity="0.6"/>
  <circle cx="110" cy="450" r="3" fill="#8fbcf0" opacity="0.5"/>

  <line x1="230" y1="270" x2="470" y2="270" stroke="#4a86d0" stroke-width="2" stroke-dasharray="1 9" stroke-linecap="round" opacity="0.9"/>
  <line x1="490" y1="270" x2="730" y2="270" stroke="#4a86d0" stroke-width="2" stroke-dasharray="1 9" stroke-linecap="round" opacity="0.9"/>
  <polygon points="470,262 486,270 470,278" fill="#8fbcf0"/>
  <polygon points="730,262 746,270 730,278" fill="#8fbcf0"/>

  <g filter="url(#soft2)">
    <circle cx="170" cy="270" r="76" fill="url(#nodeFill2)" stroke="url(#nodeRing2)" stroke-width="2.5"/>
    <rect x="128" y="248" width="84" height="52" rx="4" fill="none" stroke="#bcd9f7" stroke-width="4"/>
    <line x1="128" y1="266" x2="212" y2="266" stroke="#bcd9f7" stroke-width="3"/>
    <line x1="150" y1="248" x2="150" y2="300" stroke="#bcd9f7" stroke-width="3"/>
    <line x1="190" y1="248" x2="190" y2="300" stroke="#bcd9f7" stroke-width="3"/>
  </g>
  <text x="170" y="372" text-anchor="middle" font-family="sans-serif" font-size="22" font-weight="700" fill="#eaf2fc">メーカー</text>

  <g filter="url(#soft2)">
    <circle cx="480" cy="270" r="92" fill="url(#sphere2)"/>
    <ellipse cx="446" cy="232" rx="34" ry="20" fill="#ffffff" opacity="0.28"/>
    <circle cx="480" cy="240" r="26" fill="#eef6ff"/>
    <path d="M 432 320 Q 480 262 528 320 Z" fill="#eef6ff"/>
  </g>
  <text x="480" y="388" text-anchor="middle" font-family="sans-serif" font-size="24" font-weight="700" fill="#ffffff">営業代行</text>

  <g filter="url(#soft2)">
    <circle cx="790" cy="270" r="76" fill="url(#nodeFill2)" stroke="url(#nodeRing2)" stroke-width="2.5"/>
    <path d="M 748 250 L 758 232 L 822 232 L 832 250 Z" fill="none" stroke="#bcd9f7" stroke-width="4"/>
    <rect x="750" y="250" width="80" height="52" fill="none" stroke="#bcd9f7" stroke-width="4"/>
    <rect x="770" y="270" width="18" height="32" fill="#bcd9f7"/>
  </g>
  <text x="790" y="372" text-anchor="middle" font-family="sans-serif" font-size="22" font-weight="700" fill="#eaf2fc">サロン・代理店</text>
</svg>
